<?xml version="1.0" encoding="utf-8"?>
<!-- Generator: Adobe Illustrator 25.0.0, SVG Export Plug-In . SVG Version: 6.00 Build 0)  -->
<svg version="1.1" baseProfile="tiny" id="Layer_1" xmlns="http://www.w3.org/2000/svg" xmlns:xlink="http://www.w3.org/1999/xlink"
	 x="0px" y="0px" viewBox="0 0 1000 1000" overflow="visible" xml:space="preserve">
<path fill="#FFFFFF" stroke="#000000" stroke-width="8" stroke-miterlimit="10" d="M196.7,683.5"/>
<path fill="#FFFFFF" stroke="#000000" stroke-width="8" stroke-miterlimit="10" d="M196.7,683.5C168.8,633.4,153,575.9,153,514.9
	C153,319.4,315.5,161,515.9,161s362.9,158.4,362.9,353.8S716.4,868.7,515.9,868.7c-90.6,0-173.4-32.3-237-85.8"/>
<path fill="#FFFFFF" stroke="#000000" stroke-width="18" stroke-miterlimit="10" d="M835.1,514.9c0,171.8-142.9,311.2-319.2,311.2
	S196.7,686.7,196.7,514.9s142.9-311.2,319.2-311.2"/>
<path fill="#FFFFFF" stroke="#000000" stroke-width="18" stroke-miterlimit="10" d="M407.9,230.8"/>
<g>
	<g>
		<path d="M369.1,540c-11.9,0-25.2-1.7-40-5.2c-14.8-3.5-28.6-7.4-41.3-11.7l14.4-63.5h23.1l-3.6,36.2c-0.1,1.3,0.4,2.7,1.5,4.2
			c1.1,1.5,2.7,3.1,4.7,4.5c3.3,2.3,7.4,4.6,12.4,6.7s10.5,3.9,16.4,5.2c6,1.3,11.8,2,17.6,2c13.5,0,25.2-1.9,34.9-5.6
			c9.7-3.7,17.2-9.1,22.4-16.2s7.9-15.6,7.9-25.6c0-7.5-2.2-14-6.7-19.5c-4.5-5.4-10.8-10.1-18.8-13.9c-9.3-4.5-18.4-8.2-27.3-11.1
			c-8.9-2.9-17.5-6.4-25.8-10.3c-7.3-3.5-13.8-7.7-19.6-12.7c-5.7-5-10.2-10.6-13.5-17c-3.3-6.4-4.9-13.5-4.9-21.4
			c0-10.5,2.5-20.3,7.5-29.2s11.9-16.7,20.7-23.3c8.8-6.6,18.9-11.7,30.4-15.4c11.5-3.7,23.6-5.5,36.5-5.5c14.3,0,28,1.4,41.1,4.1
			c13.1,2.7,24.7,5.4,34.9,8.1l-14.2,61.9h-22.9l3.6-34.1c0.1-1.2-0.4-2.6-1.6-4.2c-1.2-1.6-3-3.2-5.4-4.8c-2.4-1.6-5.4-3.1-9.1-4.5
			c-3.7-1.4-7.8-2.5-12.4-3.4c-4.6-0.9-9.8-1.4-15.5-1.4c-19.1,0-33.6,4.1-43.4,12.4c-9.8,8.3-14.7,18.2-14.7,29.9
			c0,6.6,2.1,12.8,6.4,18.6c4.3,5.8,11.7,11,22.3,15.6c8.6,3.7,17.2,7.2,25.8,10.3c8.6,3.1,17,6.7,25.3,10.8
			c6.1,2.9,12.2,6.5,18.3,10.9s11.1,9.8,15.2,16.3c4,6.4,6,14.2,6,23.2c0,9.5-2.1,18.9-6.2,28.2c-4.2,9.3-10.6,17.8-19.2,25.4
			c-8.7,7.6-19.9,13.7-33.6,18.2C404.8,537.7,388.3,540,369.1,540z"/>
	</g>
</g>
<g>
	<g>
		<path d="M514.4,536.2c-6.6,0-12.3-1.3-17.2-3.9c-4.8-2.6-8.6-6.3-11.2-11.1c-2.6-4.8-3.9-10.4-3.9-16.8c0-6.4,1-12.5,3.1-18.2
			c2.1-5.8,5-10.8,8.8-15.3c3.8-4.4,8.3-7.9,13.4-10.4c5.1-2.5,10.8-3.8,17-3.8c7.5,0,13.6,1.5,18.3,4.4c4.7,2.9,8.2,6.8,10.5,11.7
			s3.4,10.2,3.4,16c0,6.3-1,12.3-3.1,18.1c-2.1,5.7-5,10.8-8.8,15.2c-3.8,4.4-8.2,7.9-13.4,10.4C526.2,535,520.5,536.2,514.4,536.2z
			 M515.5,528.1c3.4,0,6.5-0.8,9.2-2.5s5.1-3.9,7.1-6.7c2-2.8,3.7-5.9,5.1-9.4c1.4-3.5,2.4-7.1,3-10.8c0.7-3.8,1-7.4,1-10.9
			c0-4.2-0.6-8-1.7-11.4c-1.1-3.5-3-6.2-5.6-8.3c-2.6-2.1-6.1-3.1-10.5-3.1c-3.7,0-6.9,0.9-9.7,2.6c-2.8,1.8-5.2,4.1-7.2,7
			c-2,2.9-3.6,6.2-4.9,9.7c-1.3,3.6-2.2,7.2-2.8,10.8c-0.6,3.6-0.9,7.1-0.9,10.2c0,3.9,0.5,7.6,1.6,11.1c1.1,3.5,2.9,6.3,5.5,8.4
			C507.5,527,511,528.1,515.5,528.1z"/>
		<path d="M589.4,535.3c-3,0-5.5-0.6-7.3-1.8c-1.9-1.2-3.3-2.6-4.1-4.3c-0.9-1.7-1.3-3.2-1.3-4.6c0-1.2,0.2-2.7,0.5-4.5
			c0.3-1.8,0.7-3.7,1.2-5.6l16.7-73.2c0.2-1,0.1-1.7-0.3-2.1c-0.4-0.4-1-0.7-1.7-1l-11-4.3V428h30.3l-18.5,81.4
			c-0.5,2.1-0.9,4.1-1.3,6.1c-0.4,2-0.6,3.3-0.6,3.9c0,1.5,0.6,2.9,1.8,4.1c1.2,1.3,3.2,1.9,6.2,1.9c1,0,2.2-0.2,3.7-0.5
			c1.5-0.3,3.1-0.8,4.9-1.5h2.7v6.9c-2.7,1.4-5.4,2.5-8.1,3.2c-2.7,0.7-5.3,1.2-7.6,1.4C593.1,535.2,591.1,535.3,589.4,535.3z"/>
		<path d="M653.9,535.8c-2.4,0-5.2-0.5-8.5-1.4c-3.3-0.9-6.6-2.6-9.8-4.8c-3.2-2.3-5.9-5.5-8-9.5c-2.1-4.1-3.2-9.2-3.2-15.5
			c0-5.7,1.1-11.4,3.2-17.1c2.1-5.6,5.1-10.8,9-15.4c3.9-4.7,8.6-8.4,14-11.1c5.4-2.8,11.5-4.2,18.1-4.2c3.6,0,7.2,0.6,10.9,1.7
			c3.7,1.1,6.8,2.9,9.2,5.5c2.5,2.6,3.7,6,3.7,10.2c0,4.5-1.2,8.3-3.7,11.4c-2.5,3.1-5.7,5.6-9.7,7.5c-4,1.9-8.5,3.3-13.3,4.1
			c-4.8,0.8-9.6,1.3-14.4,1.3c-1.5,0-3.1-0.1-4.7-0.2c-1.6-0.1-3.1-0.2-4.5-0.4c-1.4-0.2-2.6-0.3-3.5-0.4l0.4-7.3
			c4.5,0.4,7.5,0.6,9.1,0.7c1.6,0.1,2.8,0.1,3.7,0.1c7.6,0,13.7-1.4,18.3-4c4.6-2.7,6.9-7.1,6.9-13.3c0-2.9-1-5.1-3-6.6
			c-2-1.5-4.4-2.3-7.1-2.3c-4.2,0-8.1,1.2-11.5,3.6c-3.4,2.4-6.3,5.5-8.8,9.3c-2.4,3.8-4.3,7.8-5.6,12c-1.3,4.2-2,8.1-2,11.6
			c0,4.5,0.7,8.6,2.2,12.2c1.5,3.6,3.8,6.4,7,8.5c3.2,2.1,7.4,3.1,12.6,3.1c3.7,0,7.3-0.8,10.9-2.3c3.6-1.5,8.2-4,13.8-7.3h3.1v9.5
			c-4.1,2.2-8,4.1-11.7,5.8c-3.7,1.6-7.4,2.9-11.1,3.7C662.2,535.3,658.2,535.8,653.9,535.8z"/>
	</g>
</g>
<g>
	<g>
		<path d="M538.1,695.8c-3.5,0-6.6-0.8-9.1-2.4c-2.5-1.6-3.8-3.8-3.8-6.6c0-0.7,0.1-1.6,0.4-2.8c0.2-1.2,0.5-2.5,0.8-3.8
			c0.3-1.3,0.5-2.5,0.7-3.4l6.9-31.6H525v-5.2c2.5-0.3,4.6-0.6,6.3-1s3.1-1.1,4.2-2.2s1.9-2.8,2.6-5.1l2.1-7.8l9.8-1.6l-11.6,52.2
			c-0.2,0.8-0.4,1.7-0.6,2.8c-0.2,1.1-0.4,2.1-0.6,3.1c-0.2,1-0.3,1.6-0.3,1.8c0,1.4,0.5,2.4,1.5,3.3c1,0.8,2.2,1.5,3.5,1.8
			c1.3,0.4,2.6,0.6,3.6,0.6c0.8,0,1.8-0.1,2.9-0.3c1.1-0.2,2.3-0.5,3.3-0.8s1.9-0.6,2.4-0.8h2v4.5c-0.7,0.4-2.1,1-4.2,1.9
			c-2.1,0.9-4.4,1.7-7,2.4C542.5,695.4,540.2,695.8,538.1,695.8z M544,645.2l1.4-6.3h19.1v6.3H544z"/>
		<path d="M585.2,720.2c-3.4,0-6.2-0.2-8.6-0.6c-2.4-0.4-4.1-0.7-5.2-0.9v-10.8h2.4c1.1,0.4,2.3,0.9,3.7,1.4s2.7,0.9,4.2,1.2
			c1.5,0.3,3,0.5,4.7,0.5c4.4,0,7.8-0.3,10-0.9s4.2-1.7,5.7-3.4c0.5-0.5,0.9-1.3,1.3-2.3c0.4-1,0.8-2.1,1.2-3.4
			c0.4-1.3,0.8-2.7,1.3-4.2l3.2-11h-0.7c-2.7,2.7-5.2,4.8-7.6,6.1c-2.4,1.3-4.6,2.2-6.8,2.6c-2.1,0.4-4.2,0.6-6.1,0.6
			c-4,0-7.3-1-10-3c-2.7-2-4.1-5.2-4.1-9.6c0-0.9,0.1-1.9,0.2-2.9c0.1-1,0.3-2,0.5-3.1l6.1-26.3c0.2-0.8,0.1-1.3-0.1-1.5
			c-0.2-0.3-0.6-0.5-1.2-0.8l-6.4-2.8v-4.1l21-2.7l-7.8,33.9c-0.3,1.3-0.6,2.6-0.8,3.9c-0.2,1.3-0.3,2.4-0.3,3.5
			c0,2.5,0.7,4.4,2,5.7c1.3,1.3,3.8,1.9,7.3,1.9c2.2,0,4.8-0.5,7.6-1.3c2.9-0.9,5.3-2.3,7.4-4.4l6.5-31.5c0-1.8,0-3.6,0-5.4
			c0-1.8,0-3.6,0-5.3h12.9l-10.5,52.6c-0.9,4.6-2.4,8.5-4.5,11.7c-2,3.2-4.4,5.9-7.1,8.1c-3.3,2.7-6.6,4.8-10,6.4
			C593.3,719.3,589.4,720.2,585.2,720.2z"/>
		<path d="M653,695.7c-2.2,0-4-0.5-5.4-1.3c-1.4-0.9-2.4-2-3.1-3.2c-0.7-1.2-1-2.4-1-3.4c0-0.9,0.1-2,0.4-3.3
			c0.2-1.3,0.5-2.7,0.9-4.2l12.4-54.2c0.2-0.8,0.1-1.3-0.2-1.6c-0.3-0.3-0.7-0.5-1.2-0.8l-8.1-3.2v-4.3H670l-13.7,60.2
			c-0.4,1.5-0.7,3-1,4.5c-0.3,1.5-0.4,2.4-0.4,2.9c0,1.1,0.4,2.1,1.3,3.1c0.9,1,2.4,1.4,4.6,1.4c0.7,0,1.6-0.1,2.7-0.4
			s2.3-0.6,3.6-1.1h2v5.1c-2,1.1-4,1.8-6,2.4c-2,0.5-3.9,0.9-5.7,1.1C655.7,695.6,654.2,695.7,653,695.7z"/>
		<path d="M700.7,696c-1.8,0-3.8-0.3-6.3-1c-2.4-0.7-4.9-1.9-7.2-3.6c-2.4-1.7-4.4-4.1-6-7.1c-1.6-3-2.4-6.8-2.4-11.5
			c0-4.2,0.8-8.4,2.4-12.6s3.8-8,6.7-11.4c2.9-3.4,6.3-6.2,10.4-8.2c4-2.1,8.5-3.1,13.4-3.1c2.7,0,5.4,0.4,8.1,1.2
			c2.7,0.8,5,2.2,6.8,4.1c1.8,1.9,2.7,4.4,2.7,7.6c0,3.3-0.9,6.1-2.7,8.4c-1.8,2.3-4.2,4.1-7.2,5.5c-3,1.4-6.3,2.4-9.9,3
			c-3.6,0.6-7.1,0.9-10.6,0.9c-1.1,0-2.3,0-3.5-0.1c-1.2-0.1-2.3-0.2-3.3-0.3c-1-0.1-1.9-0.2-2.6-0.3l0.3-5.4
			c3.3,0.3,5.5,0.5,6.7,0.5c1.2,0.1,2.1,0.1,2.7,0.1c5.6,0,10.2-1,13.5-3c3.4-2,5.1-5.3,5.1-9.8c0-2.1-0.7-3.8-2.2-4.9
			s-3.3-1.7-5.2-1.7c-3.1,0-6,0.9-8.5,2.7c-2.5,1.8-4.7,4.1-6.5,6.9c-1.8,2.8-3.2,5.7-4.1,8.9c-1,3.1-1.5,6-1.5,8.6
			c0,3.4,0.5,6.4,1.6,9c1.1,2.6,2.8,4.7,5.2,6.3s5.5,2.3,9.3,2.3c2.7,0,5.4-0.6,8.1-1.7c2.7-1.1,6.1-2.9,10.2-5.4h2.3v7.1
			c-3,1.7-5.9,3.1-8.7,4.3c-2.7,1.2-5.5,2.1-8.2,2.8C706.8,695.7,703.9,696,700.7,696z"/>
	</g>
</g>
<g>
	<g>
		<path d="M453.2,697.8c-7.3,0-14.9-0.8-23-2.5c-8-1.7-15.5-3.6-22.5-5.9l6.6-36h8.6l3.2,18c0.1,0.8,0.4,1.6,0.9,2.3s1.2,1.4,2,2.1
			c2.6,2,6,3.7,10.1,5.2c4.1,1.5,8.1,2.6,12,3.4c3.9,0.8,6.9,1.2,8.9,1.2c4.4,0,8.7-0.8,12.7-2.4c4-1.6,7.3-4,9.9-7.2
			c2.6-3.2,3.8-7.1,3.8-11.9c0-4.9-1.6-8.6-4.9-11.3c-3.2-2.7-7.1-5-11.5-7.1c-3.5-1.7-7.1-3.3-10.8-4.9c-3.7-1.6-7.3-3.2-10.9-4.8
			c-4.2-1.9-8-4.2-11.4-6.9c-3.3-2.7-5.9-6-7.8-9.7c-1.9-3.7-2.8-8-2.8-13c0-6.8,1.6-12.8,4.9-17.8c3.2-5,7.5-9.2,12.8-12.6
			c5.3-3.4,11.1-5.9,17.5-7.6c6.3-1.7,12.5-2.5,18.6-2.5c7.3,0,14.5,0.7,21.5,2.1c7,1.4,14,3,21.1,4.9l-7.2,33.5h-8.6l-2.7-16.8
			c-0.2-0.8-0.5-1.5-1-2.3s-1.2-1.4-2.2-2c-2.4-1.6-5.3-3-8.6-4c-3.3-1.1-6.5-1.8-9.6-2.4s-5.4-0.8-7.1-0.8c-6,0-11.1,2-15.4,5.9
			c-4.3,3.9-6.4,8.9-6.4,14.8c0,4.9,1.7,8.6,5.2,11.3c3.5,2.6,7.5,5,12,7c3.4,1.5,6.8,3,10.3,4.5c3.5,1.5,6.9,3.1,10.3,4.7
			c4.4,2.1,8.3,4.5,11.7,7.1c3.4,2.6,6,5.8,8,9.4c2,3.6,3,8,3,13.1c0,7.7-1.9,14.3-5.7,19.6c-3.8,5.3-8.8,9.6-15.1,12.9
			c-6.2,3.3-12.9,5.6-20,7.1C466.9,697,460,697.8,453.2,697.8z"/>
	</g>
</g>
</svg>
