<?xml version="1.0" encoding="utf-8"?>
<!-- Generator: Adobe Illustrator 25.0.0, SVG Export Plug-In . SVG Version: 6.00 Build 0)  -->
<svg version="1.1" id="Layer_1" xmlns="http://www.w3.org/2000/svg" xmlns:xlink="http://www.w3.org/1999/xlink" x="0px" y="0px"
	 viewBox="0 0 1000 1000" style="enable-background:new 0 0 1000 1000;" xml:space="preserve">
<style type="text/css">
	.st0{fill:#FFFFFF;stroke:#000000;stroke-width:8;stroke-miterlimit:10;}
	.st1{fill:#FFFFFF;stroke:#000000;stroke-width:18;stroke-miterlimit:10;}
</style>
<path class="st0" d="M354.85,473.88"/>
<path class="st0" d="M354.85,473.88c-12.7-23.39-19.91-50.18-19.91-78.67c0-91.16,73.9-165.06,165.06-165.06
	s165.06,73.9,165.06,165.06S591.16,560.28,500,560.28c-41.18,0-78.84-15.08-107.76-40.02"/>
<path class="st1" d="M645.15,395.21c0,80.16-64.99,145.15-145.15,145.15s-145.15-64.99-145.15-145.15S419.84,250.06,500,250.06"/>
<path class="st1" d="M450.87,262.7"/>
<g>
	<g>
		<path d="M433.24,406.94c-5.41,0-11.48-0.81-18.2-2.42c-6.73-1.61-12.99-3.44-18.8-5.47l6.55-29.63h10.5l-1.64,16.9
			c-0.05,0.6,0.17,1.25,0.67,1.97c0.5,0.72,1.22,1.43,2.16,2.12c1.49,1.09,3.38,2.14,5.66,3.13c2.28,0.99,4.78,1.8,7.48,2.42
			c2.71,0.62,5.37,0.93,8,0.93c6.15,0,11.44-0.87,15.86-2.61c4.42-1.74,7.82-4.26,10.2-7.56c2.38-3.3,3.57-7.28,3.57-11.95
			c0-3.52-1.02-6.55-3.05-9.08c-2.04-2.53-4.89-4.69-8.56-6.48c-4.22-2.08-8.35-3.81-12.4-5.17c-4.05-1.36-7.96-2.97-11.73-4.8
			c-3.33-1.64-6.29-3.61-8.9-5.92c-2.61-2.31-4.65-4.95-6.14-7.93c-1.49-2.98-2.23-6.3-2.23-9.98c0-4.91,1.14-9.46,3.42-13.63
			c2.28-4.17,5.42-7.79,9.42-10.87c4-3.08,8.6-5.47,13.81-7.19c5.21-1.71,10.75-2.57,16.6-2.57c6.5,0,12.73,0.63,18.69,1.9
			s11.24,2.52,15.86,3.76l-6.48,28.89h-10.42l1.64-15.93c0.05-0.55-0.2-1.19-0.74-1.94c-0.55-0.74-1.37-1.49-2.46-2.23
			c-1.09-0.74-2.47-1.44-4.13-2.08c-1.66-0.64-3.55-1.18-5.66-1.6c-2.11-0.42-4.46-0.63-7.04-0.63c-8.69,0-15.26,1.92-19.73,5.77
			c-4.47,3.85-6.7,8.5-6.7,13.96c0,3.08,0.97,5.97,2.9,8.67c1.94,2.71,5.31,5.13,10.13,7.26c3.92,1.74,7.83,3.34,11.73,4.8
			c3.9,1.46,7.73,3.14,11.5,5.03c2.78,1.34,5.55,3.04,8.3,5.1c2.75,2.06,5.05,4.59,6.89,7.59c1.84,3,2.75,6.62,2.75,10.83
			c0,4.42-0.94,8.8-2.83,13.14c-1.89,4.34-4.8,8.29-8.75,11.84c-3.95,3.55-9.04,6.38-15.26,8.49
			C449.46,405.88,441.97,406.94,433.24,406.94z"/>
	</g>
</g>
<g>
	<g>
		<path d="M499.31,405.19c-3.01,0-5.61-0.61-7.81-1.82s-3.89-2.93-5.09-5.16c-1.19-2.23-1.79-4.85-1.79-7.86
			c0-2.99,0.47-5.82,1.42-8.51s2.28-5.06,4.01-7.12c1.73-2.06,3.77-3.69,6.11-4.87c2.34-1.18,4.92-1.77,7.71-1.77
			c3.4,0,6.18,0.68,8.34,2.04c2.16,1.36,3.75,3.17,4.78,5.44c1.03,2.27,1.54,4.77,1.54,7.48c0,2.95-0.47,5.75-1.42,8.42
			c-0.94,2.67-2.28,5.03-4,7.09c-1.72,2.06-3.75,3.69-6.1,4.87C504.68,404.6,502.1,405.19,499.31,405.19z M499.8,401.37
			c1.56,0,2.96-0.38,4.2-1.15c1.24-0.77,2.33-1.8,3.25-3.11s1.7-2.77,2.32-4.4c0.62-1.63,1.08-3.31,1.38-5.06s0.45-3.43,0.45-5.07
			c0-1.95-0.26-3.73-0.78-5.34c-0.52-1.61-1.37-2.89-2.55-3.86c-1.18-0.96-2.77-1.45-4.76-1.45c-1.66,0-3.13,0.41-4.4,1.23
			c-1.28,0.82-2.36,1.91-3.27,3.27c-0.9,1.36-1.64,2.87-2.22,4.53c-0.58,1.66-1.01,3.34-1.28,5.04c-0.27,1.7-0.4,3.29-0.4,4.76
			c0,1.83,0.25,3.55,0.75,5.16c0.5,1.62,1.33,2.93,2.5,3.94C496.17,400.86,497.77,401.37,499.8,401.37z"/>
		<path d="M533.43,404.76c-1.37,0-2.48-0.28-3.33-0.84c-0.85-0.56-1.48-1.23-1.88-2.01c-0.4-0.78-0.61-1.49-0.61-2.13
			c0-0.56,0.08-1.26,0.23-2.1s0.34-1.72,0.54-2.63l7.59-34.16c0.1-0.48,0.06-0.81-0.14-1c-0.2-0.19-0.45-0.34-0.76-0.47l-4.98-2.02
			v-2.71h13.78l-8.43,37.96c-0.23,0.98-0.43,1.92-0.61,2.83c-0.18,0.91-0.26,1.52-0.26,1.84c0,0.68,0.27,1.33,0.81,1.93
			c0.54,0.6,1.47,0.9,2.8,0.9c0.44,0,0.99-0.08,1.66-0.23c0.67-0.16,1.42-0.39,2.22-0.7h1.24v3.2c-1.22,0.66-2.45,1.17-3.69,1.51
			c-1.23,0.34-2.39,0.56-3.47,0.67C535.09,404.71,534.18,404.76,533.43,404.76z"/>
		<path d="M562.77,404.97c-1.08,0-2.37-0.22-3.88-0.65s-2.99-1.19-4.45-2.26c-1.46-1.07-2.68-2.55-3.66-4.45
			c-0.97-1.9-1.46-4.31-1.46-7.23c0-2.68,0.48-5.33,1.45-7.96c0.96-2.63,2.33-5.03,4.11-7.2s3.89-3.9,6.36-5.2
			c2.47-1.3,5.21-1.94,8.21-1.94c1.64,0,3.29,0.26,4.96,0.78s3.07,1.37,4.2,2.57c1.13,1.19,1.7,2.78,1.7,4.78
			c0,2.09-0.56,3.86-1.68,5.3c-1.12,1.44-2.6,2.6-4.43,3.48c-1.83,0.88-3.85,1.52-6.05,1.91c-2.2,0.39-4.38,0.59-6.53,0.59
			c-0.68,0-1.39-0.03-2.13-0.08c-0.74-0.05-1.42-0.11-2.05-0.19s-1.16-0.13-1.57-0.17l0.16-3.39c2.03,0.19,3.41,0.3,4.12,0.34
			c0.71,0.04,1.28,0.06,1.7,0.06c3.46,0,6.24-0.63,8.32-1.88c2.08-1.25,3.13-3.32,3.13-6.21c0-1.35-0.46-2.38-1.38-3.1
			c-0.92-0.72-2-1.07-3.22-1.07c-1.93,0-3.67,0.57-5.23,1.7c-1.55,1.13-2.88,2.58-3.98,4.34c-1.1,1.76-1.94,3.62-2.54,5.58
			c-0.59,1.96-0.89,3.77-0.89,5.43c0,2.12,0.33,4.01,1,5.68c0.66,1.67,1.72,2.99,3.17,3.97c1.45,0.98,3.36,1.46,5.72,1.46
			c1.66,0,3.31-0.36,4.96-1.07c1.65-0.72,3.74-1.85,6.27-3.41h1.43v4.45c-1.87,1.04-3.64,1.93-5.32,2.69
			c-1.68,0.76-3.37,1.34-5.06,1.74C566.54,404.77,564.72,404.97,562.77,404.97z"/>
	</g>
</g>
<g>
	<g>
		<path d="M510.11,479.6c-1.61,0-2.99-0.37-4.13-1.1c-1.14-0.74-1.72-1.76-1.72-3.06c0-0.31,0.05-0.74,0.16-1.31
			c0.11-0.57,0.23-1.16,0.37-1.78c0.14-0.62,0.25-1.15,0.34-1.58l3.13-14.73h-4.12v-2.42c1.14-0.12,2.09-0.28,2.86-0.46
			c0.77-0.18,1.4-0.53,1.89-1.04c0.49-0.51,0.88-1.3,1.17-2.39l0.97-3.66l4.44-0.76l-5.27,24.36c-0.08,0.35-0.17,0.79-0.28,1.3
			c-0.11,0.51-0.2,0.99-0.29,1.44c-0.08,0.45-0.13,0.73-0.13,0.85c0,0.63,0.23,1.14,0.69,1.53c0.46,0.39,1,0.68,1.61,0.86
			c0.61,0.18,1.16,0.28,1.63,0.28c0.37,0,0.81-0.05,1.33-0.16c0.52-0.11,1.03-0.23,1.52-0.38c0.49-0.15,0.85-0.27,1.08-0.38h0.92
			v2.12c-0.31,0.18-0.94,0.48-1.9,0.88c-0.96,0.4-2.02,0.77-3.18,1.11C512.07,479.43,511.03,479.6,510.11,479.6z M512.75,456.03
			l0.64-2.95h8.7v2.95H512.75z"/>
		<path d="M531.52,490.98c-1.53,0-2.84-0.09-3.92-0.26s-1.87-0.32-2.36-0.43v-5.06h1.1c0.51,0.2,1.06,0.41,1.66,0.63
			c0.6,0.22,1.23,0.41,1.91,0.55c0.68,0.15,1.38,0.22,2.12,0.22c2.01,0,3.53-0.13,4.57-0.4c1.04-0.27,1.91-0.8,2.61-1.6
			c0.23-0.25,0.43-0.6,0.61-1.06c0.18-0.46,0.36-0.99,0.54-1.6c0.18-0.61,0.38-1.26,0.58-1.97l1.47-5.11h-0.34
			c-1.21,1.27-2.36,2.22-3.44,2.83c-1.08,0.61-2.11,1.01-3.07,1.2c-0.97,0.18-1.89,0.28-2.76,0.28c-1.81,0-3.33-0.47-4.57-1.42
			c-1.24-0.94-1.85-2.44-1.85-4.5c0-0.44,0.03-0.9,0.09-1.36c0.06-0.46,0.15-0.94,0.25-1.45l2.76-12.29
			c0.08-0.35,0.06-0.59-0.05-0.72s-0.29-0.25-0.55-0.36l-2.9-1.29v-1.91l9.55-1.27L532,468.44c-0.14,0.61-0.26,1.22-0.36,1.82
			s-0.15,1.14-0.15,1.63c0,1.17,0.31,2.04,0.92,2.64c0.61,0.59,1.72,0.89,3.32,0.89c1.01,0,2.17-0.21,3.46-0.62
			c1.3-0.41,2.41-1.09,3.35-2.03l2.95-14.69c0-0.84,0-1.68,0-2.51c0-0.83,0-1.66,0-2.49h5.87l-4.79,24.52
			c-0.43,2.16-1.11,3.98-2.04,5.46c-0.93,1.47-2.01,2.73-3.23,3.78c-1.49,1.24-3.01,2.24-4.57,3S533.44,490.98,531.52,490.98z"/>
		<path d="M562.32,479.56c-1.01,0-1.83-0.21-2.46-0.62c-0.63-0.42-1.09-0.91-1.39-1.49c-0.3-0.58-0.45-1.1-0.45-1.58
			c0-0.41,0.06-0.93,0.17-1.55c0.11-0.62,0.25-1.27,0.4-1.95l5.62-25.28c0.08-0.35,0.04-0.6-0.1-0.74
			c-0.15-0.14-0.33-0.25-0.56-0.35l-3.68-1.5v-2h10.2l-6.24,28.09c-0.17,0.72-0.32,1.42-0.45,2.09c-0.13,0.68-0.2,1.13-0.2,1.36
			c0,0.51,0.2,0.98,0.6,1.43c0.4,0.45,1.09,0.67,2.07,0.67c0.32,0,0.73-0.06,1.23-0.17s1.05-0.29,1.65-0.52h0.92v2.37
			c-0.91,0.49-1.82,0.86-2.73,1.12c-0.91,0.25-1.77,0.42-2.57,0.5C563.55,479.52,562.87,479.56,562.32,479.56z"/>
		<path d="M584.03,479.72c-0.8,0-1.75-0.16-2.87-0.48c-1.11-0.32-2.21-0.88-3.29-1.67c-1.08-0.79-1.98-1.89-2.71-3.29
			s-1.08-3.19-1.08-5.35c0-1.98,0.36-3.94,1.07-5.89c0.71-1.95,1.73-3.73,3.04-5.33c1.31-1.6,2.88-2.88,4.71-3.84
			c1.83-0.96,3.85-1.44,6.08-1.44c1.21,0,2.44,0.19,3.67,0.58c1.24,0.38,2.27,1.02,3.11,1.9c0.84,0.88,1.25,2.06,1.25,3.53
			c0,1.55-0.42,2.86-1.24,3.92c-0.83,1.07-1.92,1.93-3.28,2.58s-2.85,1.12-4.48,1.42c-1.63,0.29-3.24,0.44-4.83,0.44
			c-0.51,0-1.03-0.02-1.58-0.06c-0.54-0.04-1.05-0.08-1.52-0.14c-0.47-0.05-0.86-0.1-1.16-0.13l0.12-2.51
			c1.5,0.14,2.52,0.22,3.05,0.25c0.53,0.03,0.95,0.05,1.25,0.05c2.56,0,4.62-0.46,6.16-1.39c1.54-0.93,2.31-2.46,2.31-4.59
			c0-1-0.34-1.76-1.02-2.29c-0.68-0.53-1.48-0.79-2.38-0.79c-1.43,0-2.72,0.42-3.87,1.25c-1.15,0.84-2.13,1.91-2.95,3.21
			c-0.81,1.3-1.44,2.68-1.88,4.13s-0.66,2.79-0.66,4.02c0,1.57,0.25,2.97,0.74,4.2s1.27,2.21,2.35,2.94s2.49,1.08,4.24,1.08
			c1.23,0,2.45-0.26,3.67-0.79c1.22-0.53,2.77-1.37,4.64-2.52h1.06v3.29c-1.38,0.77-2.69,1.43-3.94,1.99
			c-1.24,0.56-2.49,0.99-3.74,1.29C586.82,479.57,585.47,479.72,584.03,479.72z"/>
	</g>
</g>
<g>
	<g>
		<path d="M471.5,480.53c-3.3,0-6.78-0.39-10.44-1.18s-7.06-1.69-10.23-2.73l3.02-16.8h3.91l1.47,8.4c0.03,0.39,0.16,0.76,0.4,1.09
			s0.54,0.66,0.9,0.97c1.2,0.92,2.74,1.73,4.6,2.42c1.86,0.69,3.69,1.21,5.48,1.58c1.79,0.36,3.14,0.55,4.03,0.55
			c2.02,0,3.94-0.37,5.78-1.11c1.83-0.74,3.33-1.85,4.49-3.34c1.16-1.48,1.74-3.33,1.74-5.54c0-2.27-0.73-4.03-2.21-5.27
			c-1.47-1.25-3.21-2.34-5.23-3.3c-1.6-0.78-3.23-1.54-4.89-2.27c-1.67-0.73-3.31-1.47-4.94-2.23c-1.93-0.87-3.65-1.94-5.17-3.21
			c-1.51-1.27-2.7-2.78-3.55-4.52c-0.85-1.74-1.28-3.75-1.28-6.05c0-3.19,0.74-5.96,2.21-8.32c1.47-2.35,3.42-4.31,5.84-5.88
			c2.42-1.57,5.07-2.74,7.94-3.53c2.87-0.78,5.69-1.18,8.46-1.18c3.33,0,6.59,0.33,9.77,0.99c3.18,0.66,6.38,1.42,9.6,2.29
			l-3.28,15.62h-3.91l-1.22-7.85c-0.08-0.36-0.24-0.72-0.46-1.07c-0.22-0.35-0.56-0.67-1.01-0.95c-1.09-0.76-2.39-1.38-3.91-1.87
			c-1.51-0.49-2.96-0.86-4.35-1.11c-1.39-0.25-2.47-0.38-3.25-0.38c-2.72,0-5.05,0.92-6.99,2.75c-1.95,1.83-2.92,4.14-2.92,6.91
			c0,2.27,0.79,4.02,2.37,5.25c1.58,1.23,3.41,2.32,5.48,3.28c1.54,0.7,3.11,1.41,4.7,2.12c1.6,0.71,3.16,1.45,4.7,2.21
			c2.02,0.98,3.79,2.09,5.31,3.32c1.53,1.23,2.74,2.7,3.65,4.39c0.91,1.69,1.36,3.73,1.36,6.11c0,3.61-0.87,6.66-2.6,9.14
			c-1.74,2.48-4.02,4.48-6.85,6.01c-2.83,1.53-5.87,2.63-9.11,3.3C477.7,480.2,474.55,480.53,471.5,480.53z"/>
	</g>
</g>
</svg>
